<svg width="40" height="41" viewBox="0 0 40 41" fill="none" xmlns="http://www.w3.org/2000/svg">
    <path d="M35.846 1H23.154a1.164 1.164 0 0 0-.96.508 1.122 1.122 0 0 0-.194.635v7.428a1.139 1.139 0 0 0 .929 1.121c.074.015.149.022.225.022h4.217L29.436 13l2.06-2.286h4.35a1.161 1.161 0 0 0 1.066-.705A1.149 1.149 0 0 0 37 9.57V2.143a1.133 1.133 0 0 0-.513-.95A1.166 1.166 0 0 0 35.846 1z" fill="#26BED6"/>
    <path d="M37.846 3H25.154a1.164 1.164 0 0 0-.96.508 1.135 1.135 0 0 0-.194.635v7.429a1.135 1.135 0 0 0 .712 1.055 1.137 1.137 0 0 0 .442.087h4.217L31.437 15l2.06-2.286h4.349a1.168 1.168 0 0 0 .816-.334 1.152 1.152 0 0 0 .316-.586c.015-.073.022-.147.022-.222v-7.43a1.135 1.135 0 0 0-.712-1.055A1.146 1.146 0 0 0 37.846 3z" fill="#003C71"/>
    <path d="M31.5 25.25c0 7.87-6.38 14.25-14.25 14.25S3 33.12 3 25.25 9.38 11 17.25 11 31.5 17.38 31.5 25.25z" fill="#26BED6"/>
    <path d="M22.594 29.344a1.188 1.188 0 0 0-2.125-1.063l-.045.083c-.11.183-.325.463-.646.748-.628.558-1.41.888-2.403.888-.991 0-1.774-.33-2.402-.887-.375-.334-.606-.66-.692-.832l-.069-.12a1.188 1.188 0 0 0-2.055 1.183c.21.421.611.986 1.238 1.543 1.042.927 2.375 1.488 3.98 1.488 1.606 0 2.938-.56 3.98-1.488.628-.557 1.028-1.122 1.239-1.543zM15.363 21.058c-.66-1.056-1.608-1.745-2.863-1.745-1.254 0-2.202.69-2.862 1.745a5.472 5.472 0 0 0-.665 1.529 1.187 1.187 0 1 0 2.304.576l.03-.105c.061-.194.177-.473.345-.741.268-.428.544-.63.848-.63.305 0 .581.201.849.63.201.322.328.66.374.846l.042.132a1.188 1.188 0 0 0 2.262-.708 5.468 5.468 0 0 0-.664-1.529zM24.827 21.058c-.66-1.056-1.608-1.745-2.863-1.745-1.254 0-2.202.69-2.862 1.745a5.471 5.471 0 0 0-.665 1.529 1.187 1.187 0 1 0 2.305.576l.03-.105a3.38 3.38 0 0 1 .344-.741c.268-.428.544-.63.849-.63.304 0 .58.201.848.63.201.322.328.66.375.846l.04.132a1.188 1.188 0 0 0 2.264-.708 5.471 5.471 0 0 0-.665-1.529z" fill="#fff"/>
    <path d="M7.07 38.395a.713.713 0 0 1-.863.376l-.049-.016c-2.331-.738-3.856-1.223-4.345-2.448a1.843 1.843 0 0 1 .162-1.665c.598-.932 1.757-1.13 2.603-.737.282-.89 1.21-1.613 2.303-1.422.583.1 1.084.485 1.336 1.006.576 1.187-.1 2.64-1.127 4.864l-.02.042zM31.164 33.712a.943.943 0 0 1-1.21-.293l-.039-.056c-1.867-2.641-3.086-4.37-2.623-6.053a2.438 2.438 0 0 1 1.501-1.625c1.376-.504 2.756.214 3.333 1.304 1.007-.712 2.563-.734 3.562.341.535.571.756 1.378.606 2.128-.342 1.712-2.215 2.703-5.076 4.225l-.054.029zM8.338 10.653a.958.958 0 0 1-1.212.355l-.063-.029c-2.98-1.376-4.93-2.278-5.375-3.993a2.475 2.475 0 0 1 .496-2.19c.955-1.14 2.532-1.21 3.592-.543.524-1.137 1.882-1.945 3.306-1.506.76.231 1.363.828 1.61 1.564.568 1.679-.576 3.5-2.32 6.29l-.034.052z" fill="#E52822"/>
</svg>
