<svg width="28" height="28" viewBox="0 0 28 28" fill="none" xmlns="http://www.w3.org/2000/svg">
    <path fill-rule="evenodd" clip-rule="evenodd" d="M14 0C6.268 0 0 6.268 0 14s6.268 14 14 14 14-6.268 14-14S21.732 0 14 0zm-1.88 18.692c-.313 0-.622-.076-.9-.223a1.926 1.926 0 0 1-.367-1.13 1.94 1.94 0 0 1 1.94-1.94c.199 0 .39.034.571.09v-2.354a4.21 4.21 0 0 0-.632-.04h-.04v-.545c-.19-.027-.38-.041-.572-.042a4.242 4.242 0 0 0-2.433 7.72l.001.002a4.232 4.232 0 0 0 3.104 1.353 4.25 4.25 0 0 0 4.245-4.244v-4.687a5.486 5.486 0 0 0 3.209 1.032v-2.307c-.231 0-.455-.025-.673-.071v-.514c-.62 0-1.227-.18-1.746-.519a3.195 3.195 0 0 1-.79-2.104h-2.306 1.688a3.209 3.209 0 0 1-.054-.586h-2.306l-.004 9.243a1.94 1.94 0 0 1-1.935 1.866zm-3.293.161z" fill="#26BED6"/>
</svg>
