<svg width="40" height="40" viewBox="0 0 40 40" fill="none" xmlns="http://www.w3.org/2000/svg">
    <path d="m20.883 22.788.754-.655.277-.946 1.25-.232c.179.258.357.516.543.78.535.768 1.11 1.589 1.68 2.488l-.583-.403-1.11.013-.774-.357-1.733.866-.456-.714.152-.84zm10.395 4.293a2.384 2.384 0 0 1-2.149 1.35 2.39 2.39 0 0 1-2.162-1.37c-.152-.31-.311-.602-.463-.893l-.628.179-.867-.728-.74-.231-1.488.9-1.409-.047-.37.556.39.906-.542 1.125v.972l.608.92 1.336.198.04.973.555.284-.754.8-.258.973 1.078 1.105.615 1.237a11.224 11.224 0 0 1-5.508 1.442 11.31 11.31 0 0 1-3.049-.43l1.085-1.64.066-.834 1.33-.748-.186-1.138.727-.853-.264-1.052-1.865-.37-1.276-1.092-2.725-.966-.178-.714-1.554-.602.099-1 1.144-.31.641.715.655-.252-.33-.96 2.42-1.276-.536-1.35 1.56-.826v-1.277l-.601-1.026.602-1.534-1.257-1.694c-.78 1.151-1.58 2.441-2.308 3.956a2.378 2.378 0 0 1-2.149 1.356 2.39 2.39 0 0 1-2.162-1.37 24.942 24.942 0 0 0-.787-1.514 13.182 13.182 0 0 0-2.341 7.515c0 7.31 5.918 13.23 13.226 13.23 7.307 0 13.225-5.92 13.225-13.23 0-.1-.013-.192-.013-.291-.165.304-.33.602-.483.926zm-17.537 9.553c-3.816-1.813-6.46-5.69-6.46-10.188 0-.245.019-.49.032-.728l1.56 2.501 1.304.662 1.144.482.198.741.562 2.038 1.455 1.224-.357.661.377 1.978.238.39-.053.239zm2.295-21.52s.86-1.23 1.25-1.833c.41-.04.833-.066 1.263-.066.694 0 1.375.073 2.043.172-.033.318-.06.642-.06.966 0 1.41.364 2.633.94 3.81l-.761.18-1.68 1.256-1.117-1.303-.159-1.41-.529-.912-.72-.609-.47-.251z" fill="#003C71"/>
    <path d="M10.613.646C6.963.646 4 3.524 4 7.076c0 3.738 3.551 6.232 6.25 11.868a.404.404 0 0 0 .363.225.387.387 0 0 0 .357-.225c2.705-5.636 6.256-8.13 6.256-11.868 0-3.552-2.963-6.43-6.613-6.43zm0 9.328a2.711 2.711 0 0 1-2.711-2.712 2.711 2.711 0 1 1 5.422 0 2.711 2.711 0 0 1-2.711 2.712zM29.129 7.261c-3.65 0-6.613 2.878-6.613 6.43 0 3.738 3.551 6.232 6.25 11.869a.404.404 0 0 0 .363.225.387.387 0 0 0 .357-.225c2.705-5.637 6.256-8.13 6.256-11.868 0-3.553-2.963-6.43-6.613-6.43zm0 9.328a2.711 2.711 0 0 1-2.711-2.712 2.711 2.711 0 1 1 5.422 0 2.711 2.711 0 0 1-2.711 2.712z" fill="#26BED6"/>
</svg>
