<svg width="40" height="40" viewBox="0 0 40 40" fill="none" xmlns="http://www.w3.org/2000/svg">
    <path d="M17.703 27.269a82.118 82.118 0 0 0-4.104.525c-1.316.205-1.747.299-1.857.409-.125.133-.172.682-.478 5.38-.352 5.546-.352 5.476.024 5.476.078 0 .4-.197.713-.432.619-.47 1.238-.745 1.676-.745.15 0 1.12.157 2.162.353C21.439 39.286 26.397 40 28.097 40c.784 0 .948-.023 1.551-.243 2.53-.918 8.538-4.44 9.619-5.632.337-.377.642-.95.713-1.357.117-.628-.305-1.373-.87-1.561-.446-.141-.853-.04-1.942.517-2.373 1.2-5.319 2.15-7.793 2.518-2.734.4-7.277-.54-7.81-1.616-.172-.344-.024-.36 1.097-.172 2.741.486 2.984.51 4.285.518 1.127.007 1.363-.016 1.848-.165.98-.314 1.52-.878 1.52-1.593 0-.376-.227-.854-.478-1.011-.102-.055-.658-.259-1.245-.439-.58-.18-1.794-.557-2.703-.848-4.45-1.388-6.557-1.82-8.186-1.647zM1.685 27.677c-.588.267-.541.047-1.184 5.875-.626 5.687-.626 5.625-.219 5.813.134.062 1.293.086 3.815.086 3.4 0 3.635-.008 3.862-.15a.921.921 0 0 0 .33-.368c.046-.126.265-2.502.477-5.287.352-4.62.376-5.083.274-5.31-.212-.44-.353-.463-3.517-.604-1.59-.071-3.04-.15-3.212-.165a1.188 1.188 0 0 0-.626.11zm3.524 7.075c.463.126 1.01.722 1.136 1.24.148.612 0 1.113-.47 1.577-.697.705-1.637.705-2.35.007-.713-.69-.729-1.615-.055-2.337.494-.51 1.058-.675 1.739-.487z" fill="#003C71"/>
    <path fill-rule="evenodd" clip-rule="evenodd" d="M27.06 0 15.713 3.82v9.487c0 6.804 4.898 12.5 11.347 13.744 6.45-1.244 11.347-6.94 11.347-13.744V3.821L27.06 0zm-8.894 13.307V5.583l8.894-2.995 8.893 2.995v7.724c0 2.686-.938 5.203-2.53 7.197a11.532 11.532 0 0 1-6.363 4.038 11.532 11.532 0 0 1-6.363-4.038 11.524 11.524 0 0 1-2.53-7.197zm1.85 7.739a12.391 12.391 0 0 1-2.722-7.739V5.271h.001c0-.182.115-.352.297-.413l9.33-3.142a.436.436 0 0 1 .276 0l9.297 3.131c.19.047.331.219.331.424v8.036c0 2.888-1.01 5.594-2.722 7.739a12.405 12.405 0 0 1-6.937 4.365.434.434 0 0 1-.203.002 12.402 12.402 0 0 1-6.948-4.367zm6.225-14.25c0-.541.055-.806.186-.95.122-.132.33-.199.692-.2.692 0 .858.2.902 1.104l.033.717.957.242c1.243.32 1.408.409 1.408.784-.011.397-.385 1.224-.616 1.313-.099.033-.506-.055-.913-.199-.923-.32-2.09-.353-2.629-.066-.44.243-.725.839-.626 1.302.099.453.825 1.026 1.804 1.435 2.584 1.07 3.464 2.03 3.476 3.794 0 1.556-.87 2.746-2.399 3.266l-.572.197-.033.806c-.033.938-.22 1.191-.902 1.191-.67 0-.868-.253-.902-1.147l-.033-.76-.99-.244c-1.275-.32-1.77-.53-1.836-.794-.077-.308.33-1.335.583-1.478.176-.088.374-.055.913.155.858.353 1.793.53 2.343.44 1.65-.253 2.1-1.853.78-2.768-.252-.177-.912-.507-1.45-.74-2.19-.903-3.037-1.83-3.037-3.341 0-1.335.616-2.317 1.793-2.88.375-.176.77-.353.88-.386.154-.044.188-.187.188-.794z" fill="#26BED6"/>
</svg>
